<?xml version="1.0" encoding="utf-8"?>
<!-- Generator: Adobe Illustrator 15.0.0, SVG Export Plug-In . SVG Version: 6.00 Build 0)  -->
<!DOCTYPE svg PUBLIC "-//W3C//DTD SVG 1.1//EN" "http://www.w3.org/Graphics/SVG/1.1/DTD/svg11.dtd">
<svg version="1.1" id="Ebene_1" xmlns="http://www.w3.org/2000/svg" xmlns:xlink="http://www.w3.org/1999/xlink" x="0px" y="0px"
	 width="180px" height="56px" viewBox="0 0 180 56" enable-background="new 0 0 180 56" xml:space="preserve">
<g>
	<path fill="#373E44" d="M17.039,22.208L10.148,3.181H6.89L0,22.208h3.805l1.557-4.699h6.372l1.499,4.699H17.039L17.039,22.208z
		 M10.753,14.425H6.342l2.191-6.891L10.753,14.425L10.753,14.425z M33.188,6.267V3.181H18.14v3.086h5.708v15.942h3.633V6.267H33.188
		L33.188,6.267z M49.27,22.208l1.04-3.084h-8.825V3.181h-3.632v19.028H49.27L49.27,22.208z M70.084,22.208L63.194,3.181h-3.258
		l-6.889,19.028h3.805l1.557-4.699h6.371l1.5,4.699H70.084L70.084,22.208z M63.799,14.425h-4.41l2.191-6.891L63.799,14.425
		L63.799,14.425z M91.07,22.382V3.181h-3.43v14.127l-0.173-0.346l-0.174-0.49c-0.029-0.058-0.087-0.173-0.172-0.375
		c-0.087-0.201-0.174-0.346-0.202-0.402L78.932,3.181h-4.18v19.028h3.46V8.255c0.087,0.317,0.144,0.433,0.26,0.663
		c0.028,0.029,0.085,0.173,0.23,0.403c0.202,0.404,0.345,0.663,0.403,0.75l8.158,12.311H91.07L91.07,22.382z M111.166,6.267V3.181
		H96.117v3.086h5.709v15.942h3.633V6.267H111.166L111.166,6.267z M119.711,22.208V3.181h-3.631v19.028H119.711L119.711,22.208z
		 M141.504,4.651c-1.643-1.24-3.547-1.816-5.967-1.816c-3.143,0-5.277,0.778-7.18,2.652c-1.873,1.846-2.91,4.354-2.91,7.121
		c0,2.97,1.182,5.795,3.199,7.611c1.787,1.613,3.92,2.364,6.891,2.364c1.125,0,2.133-0.115,3.057-0.316
		c0.865-0.201,1.355-0.375,2.564-0.924l-0.662-3.055c-1.701,0.663-2.826,0.895-4.182,0.895c-4.15,0-6.861-2.682-6.861-6.775
		c0-3.604,2.623-6.199,6.285-6.199c1.672,0,3.143,0.433,4.383,1.326L141.504,4.651L141.504,4.651z"/>
	<path fill="#373E44" d="M55.229,43.486v-4.559h1.879v4.559h1.768V33.199h-1.768v4.189h-1.879v-4.189h-1.768v10.287H55.229
		L55.229,43.486z M61.912,40.992c0,1.453,0.854,2.637,2.708,2.637c1.851,0,2.707-1.184,2.707-2.637v-5.299
		c0-1.453-0.856-2.637-2.707-2.637c-1.854,0-2.708,1.184-2.708,2.637V40.992L61.912,40.992z M63.678,35.736
		c0-0.77,0.229-1.141,0.941-1.141c0.712,0,0.939,0.371,0.939,1.141v5.215c0,0.768-0.228,1.139-0.939,1.139
		c-0.713,0-0.941-0.371-0.941-1.139V35.736L63.678,35.736z M71.257,43.486h1.767v-8.748h1.709v-1.539h-5.186v1.539h1.71V43.486
		L71.257,43.486z M82.491,43.486v-1.539h-3.162v-3.02h2.279v-1.539h-2.279v-2.65h2.964v-1.539h-4.73v10.287H82.491L82.491,43.486z
		 M90.562,43.486v-1.539h-2.777v-8.748h-1.767v10.287H90.562L90.562,43.486z M96.463,33.199v10.287h1.111v-4.9h3.02v4.9h1.111
		V33.199h-1.111v4.445h-3.02v-4.445H96.463L96.463,33.199z M105.494,39.098c0.014-1.766,0.498-2.309,1.238-2.309
		c0.928,0,1.213,0.713,1.242,2.309H105.494L105.494,39.098z M108.998,39.953v-0.484c0-2.137-0.697-3.533-2.266-3.533
		c-1.553,0-2.264,1.168-2.264,3.848c0,2.678,0.711,3.846,2.264,3.846c1.355,0,2.195-1.025,2.352-2.137l-0.969-0.115
		c-0.127,0.67-0.455,1.396-1.24,1.396c-0.967,0-1.381-0.598-1.381-2.408v-0.412H108.998L108.998,39.953z M111.66,43.486h1.025
		v-7.408h-1.025V43.486L111.66,43.486z M111.66,34.396h1.025v-1.197h-1.025V34.396L111.66,34.396z M119.043,43.486h0.969
		c-0.115-0.428-0.172-1.025-0.172-1.994v-8.293h-1.025v3.42c-0.342-0.342-0.812-0.684-1.367-0.684c-1.168,0-2.139,0.996-2.139,3.848
		c0,2.848,0.971,3.846,2.139,3.846c0.656,0,1.168-0.328,1.523-0.855H119L119.043,43.486L119.043,43.486z M118.814,42.061
		c-0.312,0.43-0.768,0.713-1.082,0.713c-0.855,0-1.396-0.713-1.396-2.99c0-2.281,0.498-2.994,1.367-2.994
		c0.457,0,0.812,0.357,1.111,0.656V42.061L118.814,42.061z M123.588,39.098c0.014-1.766,0.5-2.309,1.24-2.309
		c0.924,0,1.211,0.713,1.238,2.309H123.588L123.588,39.098z M127.094,39.953v-0.484c0-2.137-0.699-3.533-2.266-3.533
		c-1.553,0-2.266,1.168-2.266,3.848c0,2.678,0.713,3.846,2.266,3.846c1.352,0,2.193-1.025,2.35-2.137l-0.969-0.115
		c-0.127,0.67-0.457,1.396-1.238,1.396c-0.971,0-1.383-0.598-1.383-2.408v-0.412H127.094L127.094,39.953z M129.752,43.486h1.027
		V33.199h-1.027V43.486L129.752,43.486z M134.861,42.773c0.371,0.527,0.883,0.855,1.541,0.855c1.166,0,2.137-0.998,2.137-3.846
		c0-2.852-0.971-3.848-2.137-3.848c-0.557,0-1.027,0.342-1.369,0.684v-3.42h-1.025v8.293c0,0.969-0.057,1.566-0.17,1.994h0.797
		L134.861,42.773L134.861,42.773z M135.033,37.445c0.299-0.299,0.654-0.656,1.111-0.656c0.869,0,1.367,0.713,1.367,2.994
		c0,2.277-0.541,2.99-1.396,2.99c-0.312,0-0.768-0.283-1.082-0.713V37.445L135.033,37.445z M141.932,39.098
		c0.014-1.766,0.498-2.309,1.24-2.309c0.926,0,1.211,0.713,1.238,2.309H141.932L141.932,39.098z M145.438,39.953v-0.484
		c0-2.137-0.699-3.533-2.266-3.533c-1.555,0-2.266,1.168-2.266,3.848c0,2.678,0.711,3.846,2.266,3.846
		c1.352,0,2.193-1.025,2.35-2.137l-0.969-0.115c-0.127,0.67-0.455,1.396-1.24,1.396c-0.967,0-1.381-0.598-1.381-2.408v-0.412
		H145.438L145.438,39.953z M148.08,43.486h1.027v-5.271c0.555-1.055,1.139-1.311,1.908-1.311v-0.969
		c-0.812,0-1.268,0.143-1.881,1.039h-0.027v-0.896h-1.027V43.486L148.08,43.486z M156.809,44.084c0,0.6-0.4,1.055-1.539,1.055
		c-1.111,0-1.625-0.428-1.625-1.039c0-0.414,0.398-0.756,0.996-1.012C155.525,43.287,156.809,43.4,156.809,44.084L156.809,44.084z
		 M154.016,38.57c0-1.41,0.482-1.865,1.082-1.865c0.598,0,1.084,0.455,1.084,1.865s-0.486,1.867-1.084,1.867
		C154.498,40.438,154.016,39.98,154.016,38.57L154.016,38.57z M157.832,35.936c-0.627,0-1.023,0.285-1.252,0.684
		c-0.242-0.471-0.869-0.684-1.354-0.684c-1.297,0-2.152,1.025-2.152,2.791c0,0.77,0.299,1.711,0.883,2.125
		c-0.482,0.084-0.969,0.426-0.969,0.982c0,0.498,0.357,0.854,0.799,0.996c-0.67,0.287-1.084,0.828-1.084,1.482
		c0,0.969,0.855,1.596,2.537,1.596c1.568,0,2.508-0.77,2.508-1.738c0-1.211-0.955-1.553-2.023-1.781
		c-0.955-0.199-1.795-0.227-1.795-0.754c0-0.285,0.342-0.443,0.512-0.484c0.229,0,0.457,0.057,0.684,0.057
		c1.141,0,1.996-0.797,1.996-2.65c0-0.598-0.086-0.969-0.229-1.424c0.186-0.172,0.371-0.287,0.641-0.287c0.1,0,0.186,0,0.299,0.029
		V35.936L157.832,35.936z"/>
</g>
</svg>
