<?xml version="1.0" encoding="utf-8"?>
<!-- Generator: Adobe Illustrator 27.3.1, SVG Export Plug-In . SVG Version: 6.00 Build 0)  -->
<svg version="1.1" id="Ebene_1" xmlns="http://www.w3.org/2000/svg" xmlns:xlink="http://www.w3.org/1999/xlink" x="0px" y="0px"
	 viewBox="0 0 552.8 85" style="enable-background:new 0 0 552.8 85;" xml:space="preserve">
<g>
	<polygon points="412.4,83.9 450.3,83.9 450.3,70.2 427.5,70.2 427.5,56.1 448.7,56.1 448.7,42.6 427.5,42.6 427.5,29.5 450.3,29.5 
		450.3,15.8 412.4,15.8 	"/>
	<path d="M397.4,47.8c3.6-3.3,6.2-7.5,6.2-13.1c0-10.1-7.8-18.9-22.6-18.9h-22.8v68h25.2c15.4,0,23.2-9.3,23.2-20.4
		C406.5,57.3,403,51.3,397.4,47.8L397.4,47.8z M372.9,28.9h8.3c5,0,7.9,3.1,7.9,7.1s-3.1,7.4-7.8,7.4h-8.4L372.9,28.9L372.9,28.9z
		 M383.2,70.8h-10.3V55h10.5c5.4,0,8.5,3.8,8.5,7.8C391.8,67.4,388.4,70.8,383.2,70.8L383.2,70.8z"/>
	<path d="M331.4,83.9h21.6V70.2h-20.7V15.8h-15.2v53.4C317.1,80,320.7,83.9,331.4,83.9"/>
	<path d="M294,15.2c-8.6,0-13,5.6-16.7,13l-27.7,55.7h16.3l5.8-11.9h20.9v11.9h15V30.4C307.6,20.7,302.6,15.2,294,15.2L294,15.2z
		 M292.6,58.7h-14.4l14.4-29.5V58.7z"/>
	<path d="M232.9,27.6c0-8-4.1-12.4-11-12.4c-5.4,0-9.1,2.8-12.1,9l-18.4,39.7v-48H177v56.7c0,7.6,4.3,12.1,11.1,12.1
		c5.4,0,9.2-2.8,12.2-9L220,32.9v39.6c0,7.6,4.2,12.1,10.8,12.1c5.6,0,9.2-2.8,12.3-9l29.3-59.7h-16.2L233,63.9L232.9,27.6
		L232.9,27.6z"/>
	<polygon points="117,83.9 132.2,83.9 132.2,55.3 152,55.3 152,83.9 167.2,83.9 167.2,15.8 152,15.8 152,41.6 132.2,41.6 
		132.2,15.8 117,15.8 	"/>
	<path d="M45.2,49.9C45.2,69.8,60.9,85,80.8,85c14.1,0,25.8-7.4,31.6-19.3l-13.6-6.9c-3.5,7.6-9.6,11.7-17.8,11.7
		c-11.2,0-19.6-8.8-19.6-20.6s8.5-20.6,19.6-20.6c8.2,0,14.2,4.1,17.8,11.7l13.6-6.9c-5.8-12-17.5-19.3-31.6-19.3
		C60.9,14.7,45.2,29.9,45.2,49.9"/>
	<path d="M2.1,83.9H23c10.8,0,20.3-4.9,20.3-17.7c0-8.8-6-14.3-12.6-19l-10.9-7.8c-2.5-1.8-4.4-3.4-4.4-5.8s1.9-3.9,5.6-3.9h18.3
		V15.8h-19C4.7,15.8,0,25.5,0,32.8c0,8.5,5.9,14.2,12.1,18.7l11.5,8.4c2.5,1.8,4.6,3.5,4.6,5.9c0,2.6-1.9,4.3-5.2,4.3H2.1V83.9
		L2.1,83.9z"/>
	<path d="M552.4,52.6l-10.6-5l-10-47.1c-0.1-0.6-1-0.6-1.1,0l-10.5,37L475,15.9c-0.6-0.3-1.1,0.5-0.6,0.9L514,57.4l-21.1,26.7
		c-0.4,0.5,0.2,1.2,0.7,0.9l58.8-31.3C552.9,53.4,552.8,52.8,552.4,52.6"/>
</g>
</svg>
